<?xml version="1.0" standalone="no"?><!DOCTYPE svg PUBLIC "-//W3C//DTD SVG 1.1//EN"
        "http://www.w3.org/Graphics/SVG/1.1/DTD/svg11.dtd">
<svg t="1709888069685" class="icon" viewBox="0 0 1024 1024" version="1.1" xmlns="http://www.w3.org/2000/svg" p-id="2640"
     xmlns:xlink="http://www.w3.org/1999/xlink" width="200" height="200" fill="#ff5900">
    <path d="M830.57813333 34.13333333a136.53333333 136.53333333 0 0 1 136.53333334 136.53333334v682.66666666a136.53333333 136.53333333 0 0 1-136.53333334 136.53333334H238.93333333a136.53333333 136.53333333 0 0 1-136.53333333-136.53333334V716.8H43.2352A9.10186667 9.10186667 0 0 1 34.13333333 707.69813333v-50.06293333c0-5.00586667 4.096-9.10186667 9.10186667-9.10186667H102.4V375.46666667H43.2352A9.10186667 9.10186667 0 0 1 34.13333333 366.3648v-50.06293333c0-5.00586667 4.096-9.10186667 9.10186667-9.10186667H102.4V170.66666667A136.53333333 136.53333333 0 0 1 238.93333333 34.13333333h591.6448z m0 68.26666667H238.93333333a68.26666667 68.26666667 0 0 0-68.15253333 64.26133333L170.66666667 170.66666667v682.66666666a68.26666667 68.26666667 0 0 0 64.26133333 68.15253334L238.93333333 921.6h591.6448a68.26666667 68.26666667 0 0 0 68.15253334-64.26133333l0.11413333-4.00533334V170.66666667a68.26666667 68.26666667 0 0 0-64.2624-68.15253334l-4.00426667-0.11413333z m-165.36533333 141.01653333l35.3856 35.40693334a9.10186667 9.10186667 0 0 1 0 12.8576l-106.56426667 106.5408H730.45333333c5.00586667 0 9.10186667 4.096 9.10186667 9.10293333V457.38666667a9.10186667 9.10186667 0 0 1-9.10186667 9.10186666H580.26666667v68.26666667h150.18666666c5.00586667 0 9.10186667 4.096 9.10186667 9.10293333V593.92a9.10186667 9.10186667 0 0 1-9.10186667 9.10186667H580.26666667v150.18666666a9.10186667 9.10186667 0 0 1-9.10186667 9.10293334h-50.06293333a9.10186667 9.10186667 0 0 1-9.10186667-9.10293334v-150.18666666H361.81333333a9.10186667 9.10186667 0 0 1-9.10186666-9.10186667v-50.06186667c0-5.00693333 4.096-9.10293333 9.10186666-9.10293333H512v-68.26666667H361.81333333a9.10186667 9.10186667 0 0 1-9.10186666-9.10186666v-50.06186667c0-5.00693333 4.096-9.10293333 9.10186666-9.10293333h136.3968l-106.54186666-106.5408a9.10186667 9.10186667 0 0 1 0-12.8576l35.3856-35.40693334a9.10186667 9.10186667 0 0 1 12.87893333 0L546.13333333 349.616l106.20053334-106.19946667a9.10186667 9.10186667 0 0 1 12.87893333 0z"
          p-id="2641"></path>
</svg>