<svg t="1709886648551" class="icon" viewBox="0 0 1024 1024" version="1.1" xmlns="http://www.w3.org/2000/svg" p-id="1593"
     width="200" height="200" fill="#ff5900">
    <path d="M1001.81855243 872.71250361V218.19427455c0-72.06385466-58.57793762-130.75897311-130.83897063-130.75897202h-65.45441473V35.49610006c0-7.40266336-6.21282821-13.49267765-13.87689455-13.49267764h-37.67808991c-7.83758369 0-13.87576815 6.04043837-13.87576816 13.49267764v51.93920247h-458.01864973V35.49610006c0-7.40266336-6.21282821-13.49267765-13.87576816-13.49267764h-37.67921741c-7.83758369 0-13.87576815 6.04043837-13.87576816 13.49267764v51.93920247H151.19059737c-72.38272055 0-130.83897063 58.54300821-130.83897174 130.75897202v654.51710266c0 72.06385466 58.57793762 130.75897311 130.83897174 130.758972h719.79011083c72.38159415 0.0011264 130.83784423-58.54188181 130.83784423-130.7578456zM85.78237825 218.19427455c0-36.12206575 29.20389974-65.32821939 65.40709161-65.3282194h65.45441473v51.93920248c0 7.40266336 6.21282821 13.49267765 13.87576816 13.49267654h37.67921631c7.83758369 0 13.87576815-6.04043837 13.87576815-13.49267654v-51.93920248h458.01752444v51.93920248c0 7.40266336 6.21282821 13.49267765 13.87576705 13.49267654h37.67809102c7.83871009 0 13.87689455-6.04043837 13.87689455-13.49267654v-51.93920248h65.45441473c36.06798314 0 65.40709161 29.34586908 65.40709051 65.3282194v65.53441335H85.78237825v-65.53441335z m785.19720355 719.84532204H151.18946986c-36.06798314 0-65.40709161-29.34586908-65.40709161-65.32821938V349.15944052h850.60429516v523.55193669c0 36.12319326-29.20389974 65.32821939-65.40709161 65.32821938z"
          p-id="1594"></path>
    <path d="M478.35562887 844.02577562h67.60422896v-378.58368083h-50.2975466c-2.16333543 11.54342207-6.76154908 21.27843151-13.79238924 29.20502614-7.03084015 7.93448271-15.50728313 14.42561541-25.41919022 19.47001778-9.9209205 5.05341577-21.00801404 8.65334173-33.26128062 10.81667717-12.26115358 2.16333543-24.87835637 3.24500315-37.85836787 3.24500314v48.67391753h93.02341919v267.17303907z"
          p-id="1595"></path>
</svg>