<svg t="1709887955429" class="icon" viewBox="0 0 1024 1024" version="1.1" xmlns="http://www.w3.org/2000/svg" p-id="2331"
     width="200" height="200" fill="#ff5900">
    <path d="M220.72888889 342.09185223m36.40888889 0l266.99851889 0q36.40888889 0 36.4088889 36.40888889l0 0q0 36.40888889-36.4088889 36.40888889l-266.99851889 0q-36.40888889 0-36.40888889-36.40888889l0 0q0-36.40888889 36.40888889-36.40888889Z"
          p-id="2332"></path>
    <path d="M220.72888889 584.81777778m36.40888889 0l509.72444444 0q36.40888889 0 36.40888889 36.40888889l0 0q0 36.40888889-36.40888889 36.40888888l-509.72444444 0q-36.40888889 0-36.40888889-36.40888888l0 0q0-36.40888889 36.40888889-36.40888889Z"
          p-id="2333"></path>
    <path d="M986.68730709 90.18617515m-25.74497223 25.74497223l-223.12309305 223.12309305q-25.74497223 25.74497223-51.48994446 0l0 0q-25.74497223-25.74497223 0-51.48994446l223.12309305-223.12309306q25.74497223-25.74497223 51.48994446 0l0 0q25.74497223 25.74497223 0 51.48994447Z"
          p-id="2334"></path>
    <path d="M196.45629667 123.6385189a72.81777778 72.81777778 0 0 0-72.81777777 72.81777777v618.95111112h-0.02427335l0.02427335 12.35474887a72.81777778 72.81777778 0 0 0 68.5458011 72.69641557l4.27197667 0.1213622V900.3614811h631.08740666l-0.02427222 0.19418112h0.24272555L827.73788445 900.3614811l4.07779555-0.1213622A72.81777778 72.81777778 0 0 0 900.3614811 827.73788445h0.21845333L900.55566222 827.54370333 900.3614811 827.54370333V402.77333333a36.40888889 36.40888889 0 0 1 72.81777778 0V827.54370333a145.63555555 145.63555555 0 0 1-145.63555555 145.63555555l-623.75708445 0.02427335a145.63555555 145.63555555 0 0 1-152.4318811-157.77185223L50.82074112 815.40740779V220.72888889c0-2.76707555 0.31554333-5.46133333 0.89808555-8.05850112A145.63555555 145.63555555 0 0 1 220.72888889 52.83536555L220.72888889 50.82074112h400.49777778a36.40888889 36.40888889 0 0 1 0 72.81777778H196.45629667z"
          p-id="2335"></path>
</svg>