<svg t="1709887296752" class="icon" viewBox="0 0 1024 1024" version="1.1" xmlns="http://www.w3.org/2000/svg" p-id="1901"
     width="200" height="200">
    <path d="M466.48888853 30.60622187a91.02222187 91.02222187 0 0 1 91.02222294 0l348.6151104 201.2956448a91.02222187 91.02222187 0 0 1 45.51111146 78.8252448v402.54577706a91.02222187 91.02222187 0 0 1-45.51111146 78.8252448L557.51111147 993.39377813a91.02222187 91.02222187 0 0 1-91.02222294 0L117.87377813 792.09813333a91.02222187 91.02222187 0 0 1-45.51111146-78.8252448v-402.54577706a91.02222187 91.02222187 0 0 1 45.51111146-78.8252448z m45.51111147 78.8252448L163.38488853 310.72711147v402.54577706L512 914.56853333l348.61511147-201.2956448v-402.54577706L512 109.43146667zM512 329.9555552a182.0444448 182.0444448 0 1 1 0 364.0888896 182.0444448 182.0444448 0 0 1 0-364.0888896z m0 91.02222293a91.02222187 91.02222187 0 1 0 0 182.04444374 91.02222187 91.02222187 0 0 0 0-182.04444374z"
          fill="#ff5900" p-id="1902"></path>
</svg>