<svg t="1709889573363" class="icon" viewBox="0 0 1024 1024" version="1.1" xmlns="http://www.w3.org/2000/svg" p-id="1905"
     width="200" height="200">
    <path d="M512 512m-488.03404256 0a488.03404256 488.03404256 0 1 0 976.06808512 0 488.03404256 488.03404256 0 1 0-976.06808512 0Z"
          fill="#10AEFF" p-id="1906"></path>
    <path d="M691.2 717.8893617c-9.80425532 0-18.08340426-6.86297872-19.71744681-16.34042553-1.19829787-6.53617021-2.72340426-12.63659574-4.57531915-18.19234042l-0.10893617-0.21787235-0.10893616-0.21787234c-9.91319149-34.31489362-31.70042553-64.27234042-61.65787235-84.97021276-28.5412766 14.37957447-60.56851064 21.89617021-92.92255319 21.89617021-32.46297873 0-64.49021277-7.62553192-93.14042553-22.00510639-30.06638298 20.69787234-51.96255319 50.65531915-61.87574468 85.07914894-0.21787234 0.76255319-2.28765957 8.60595745-5.22893617 20.15319149-2.1787234 8.82382979-10.13106383 14.92425532-19.3906383 14.92425533h-11.65617021c-5.22893617 0-10.24-2.1787234-13.61702128-6.10042554-3.37702128-3.81276595-5.01106383-8.93276596-4.35744681-13.94382979 8.82382979-65.57957446 50.32851064-123.20680851 110.78808511-154.14468084l5.88255319-3.05021277 5.55574468 3.70382979c25.6 17.32085106 55.66638298 26.47148936 86.93106383 26.47148936 31.26468085 0 61.22212766-9.1506383 86.82212766-26.3625532l5.55574468-3.70382978 5.88255319 3.05021276c60.35063829 30.93787234 101.74638298 88.56510638 110.57021277 154.03574468 0.65361702 5.01106383-0.87148936 10.13106383-4.35744681 13.94382979s-8.3880851 6.10042553-13.61702128 6.10042554h-11.65617021zM512.21787234 527.57787234c-81.15744681 0-147.06382979-65.36170213-147.06382979-145.5387234S431.06042554 236.39148936 512.21787234 236.39148936s147.06382979 65.36170213 147.06382978 145.53872341c0 80.28595744-65.90638298 145.64765957-147.06382978 145.64765957z m0-242.27404255c-54.03234043 0-97.93361702 43.35659574-97.93361702 96.73531915s43.9012766 96.73531915 97.93361702 96.73531915c54.03234043 0 97.93361702-43.35659574 97.93361703-96.73531915s-43.9012766-96.73531915-97.93361703-96.73531915z"
          fill="#FFFFFF" p-id="1907"></path>
</svg>